<?xml version="1.0" encoding="utf-8"?>
<!-- Generator: Adobe Illustrator 16.0.0, SVG Export Plug-In . SVG Version: 6.00 Build 0)  -->
<!DOCTYPE svg PUBLIC "-//W3C//DTD SVG 1.1//EN" "http://www.w3.org/Graphics/SVG/1.1/DTD/svg11.dtd">
<svg version="1.1" id="_x2B_聊天" xmlns="http://www.w3.org/2000/svg" xmlns:xlink="http://www.w3.org/1999/xlink" x="0px"
	 y="0px" width="25px" height="22px" viewBox="0 0 25 22" enable-background="new 0 0 25 22" xml:space="preserve">
<path fill="#6AD5CB" d="M22.923,9.915h-9.477l0-8.766c0-0.301-0.116-0.583-0.329-0.796s-0.495-0.33-0.798-0.33
	c-0.619,0-1.123,0.505-1.123,1.125v8.767H1.719c-0.619,0-1.123,0.505-1.123,1.125s0.505,1.125,1.125,1.125h9.476v8.75
	c0,0.62,0.504,1.125,1.124,1.125c0.302,0,0.585-0.117,0.795-0.329c0.212-0.211,0.33-0.493,0.33-0.796l0-8.751l9.477-0.001
	c0.301,0,0.583-0.117,0.794-0.329c0.212-0.212,0.329-0.494,0.329-0.795C24.046,10.419,23.543,9.915,22.923,9.915z"/>
</svg>
